# AST/ASF file generated using VICON BodyLanguage
# -----------------------------------------------
:version 1.10
:name VICON
:units
  mass 1.0
  length 0.45
  angle deg
:documentation
   .ast/.asf automatically generated from VICON data using
   VICON BodyBuilder and BodyLanguage model FoxedUp or BRILLIANT.MOD
:root
   order TX TY TZ RX RY RZ
   axis XYZ
   position 0 0 0  
   orientation 0 0 0 
:bonedata
  begin
     id 1 
     name lhipjoint
     direction 0.822369 -0.411937 0.392449 
     length 3.8167 
     axis 0 0 0  XYZ
  end
  begin
     id 2 
     name lfemur
     direction 0.34202 -0.939693 0  
     length 6.16791  
     axis 0 0 20  XYZ
    dof rx ry rz
    limits (-160.0 20.0)
           (-70.0 70.0)
           (-60.0 70.0)
  end
  begin
     id 3 
     name ltibia
     direction 0.34202 -0.939693 0   
     length 7.07101   
     axis 0 0 20   XYZ
    dof rx
    limits (-10.0 170.0)
  end
  begin
     id 4 
     name lfoot
     direction 0.028254 -0.0776273 0.996582   
     length 1.66799   
     axis -90 7.62852e-016 20   XYZ
    dof rx rz
    limits (-45.0 90.0)
           (-70.0 20.0)
  end
  begin
     id 5 
     name ltoes
     direction 1.53483e-011 -4.21688e-011 1   
     length 0.851674   
     axis -90 7.62852e-016 20   XYZ
    dof rx
    limits (-90.0 20.0)
  end
  begin
     id 6 
     name rhipjoint
     direction -0.822466 -0.411836 0.392353   
     length 3.81764  
     axis 0 0 0  XYZ 
  end
  begin
     id 7 
     name rfemur
     direction -0.34202 -0.939693 0   
     length 6.28636   
     axis 0 0 -20   XYZ
    dof rx ry rz
    limits (-160.0 20.0)
           (-70.0 70.0)
           (-70.0 60.0)
  end
  begin
     id 8 
     name rtibia
     direction -0.34202 -0.939693 0   
     length 6.85621   
     axis 0 0 -20   XYZ
    dof rx
    limits (-10.0 170.0)
 end
 begin
     id 9 
     name rfoot
     direction -0.0553036 -0.151945 0.98684   
     length 1.57293  
     axis -90 -7.62852e-016 -20   XYZ
    dof rx rz
    limits (-45.0 90.0)
           (-20.0 70.0)
  end
  begin
     id 10 
     name rtoes
     direction -1.53592e-011 -4.21964e-011 1   
     length 0.802812   
     axis -90 -7.62852e-016 -20   XYZ
    dof rx
    limits (-90.0 20.0)
  end
  begin
     id 11 
     name lowerback
     direction 0.00654913 0.996475 -0.0836396   
     length 1.97212   
     axis 0 0 0   XYZ
    dof rx ry rz
    limits (-20.0 45.0)
           (-30.0 30.0)
           (-30.0 30.0)
  end
  begin
     id 12 
     name upperback
     direction 0.0111875 0.994527 0.103877   
     length 1.89704   
     axis 0 0 0   XYZ
    dof rx ry rz
    limits (-20.0 45.0)
           (-30.0 30.0)
           (-30.0 30.0)
  end
  begin
     id 13 
     name thorax
     direction 0.00473652 0.989004 0.147814   
     length 1.94516   
     axis 0 0 0   XYZ
    dof rx ry rz
    limits (-20.0 45.0)
           (-30.0 30.0)
           (-30.0 30.0)
  end
  begin
     id 14 
     name lowerneck
     direction -0.00925808 0.999011 0.0434791   
     length 1.81771   
     axis 0 0 0   XYZ
    dof rx ry rz
    limits (-20.0 45.0)
           (-30.0 30.0)
           (-30.0 30.0)
  end
  begin
     id 15 
     name upperneck
     direction 0.00451595 0.964412 -0.264365   
     length 1.80434   
     axis 0 0 0   XYZ
    dof rx ry rz
    limits (-20.0 45.0)
           (-30.0 30.0)
           (-30.0 30.0)
  end
  begin
     id 16
     name head
     direction -0.00110849 0.995756 -0.0920241  
     length 1.84006  
     axis 0 0 0   XYZ
    dof rx ry rz
    limits (-20.0 45.0)
           (-30.0 30.0)
           (-30.0 30.0)
  end
  begin
     id 17 
     name lclavicle
     direction 0.921253 0.385213 0.0538957  
     length 3.67415  
     axis 0 0 0   XYZ
    dof ry rz
    limits (-20.0 10.0)
           (0.0 20.0)
  end
  begin
     id 18 
     name lhumerus
     direction 1 -4.48961e-011 6.73441e-028   
     length 4.32712   
     axis 180 -30 -90   XYZ
    dof rx ry rz
    limits (-60.0 90.0)
           (-90.0 90.0)
           (-90.0 90.0)
  end
  begin
     id 19
     name lradius
     direction 1 -4.48985e-011 -9.53507e-028   
     length 3.28587   
     axis 180 -30 -90   XYZ
    dof rx
    limits (-10.0 170.0)
  end
  begin
     id 20
     name lwrist
     direction 1 -4.48951e-011 -4.67472e-027   
     length 1.64293   
     axis 1.65735e-015 90 90   XYZ
    dof ry
    limits (-180.0 0.0)
 end
  begin
     id 21 
     name lhand
     direction 1 -4.48946e-011 -9.34945e-027   
     length 0.433158   
     axis 5.96574e-015 90 90   XYZ
    dof rx rz
    limits (-90.0 90.0)
           (-45.0 45.0)
  end
  begin
     id 22 
     name lfingers
     direction 1 -4.48882e-011 -1.86989e-026   
     length 0.349224   
     axis 1.19315e-014 90 90   XYZ
    dof rx
    limits (0.0 90.0)
  end
  begin
     id 23
     name lthumb
     direction 0.707107 -6.3493e-011 0.707107   
     length 0.501417   
     axis -90 45 2.85299e-015   XYZ
    dof rx rz
    limits (-45.0 45.0)
           (-45.0 45.0)
  end
  begin
     id 24 
     name rclavicle
     direction -0.884378 0.46502 -0.0403866   
     length 3.50218  
     axis 0 0 0   XYZ 
    dof ry rz
    limits (-10.0 20.0)
           (-20.0 0.0)
  end
  begin
     id 25 
     name rhumerus
     direction -1 -4.48964e-011 1.58188e-027  
     length 4.29104   
     axis 180 30 90   XYZ
    dof rx ry rz
    limits (-90.0 60.0)
           (-90.0 90.0)
           (-90.0 90.0)
  end
  begin
     id 26 
     name rradius
     direction -1 -4.48978e-011 -1.9722e-027   
     length 3.2272   
     axis 180 30 90   XYZ
    dof rx
    limits (-10.0 170.0)
  end
  begin
     id 27 
     name rwrist
     direction -1 -4.48969e-011 -4.67472e-027   
     length 1.6136   
     axis 1.65735e-015 -90 -90   XYZ
    dof ry
    limits (-180.0 0.0)
  end
  begin
     id 28
     name rhand
     direction -1 -4.48846e-011 -9.34945e-027   
     length 0.543623   
     axis 5.96574e-015 -90 -90   XYZ
    dof rx rz
    limits (-90.0 90.0)
           (-45.0 45.0)
  end
  begin
     id 29
     name rfingers
     direction -1 -4.49074e-011 -1.86989e-026   
     length 0.438283   
     axis 1.19315e-014 -90 -90   XYZ
    dof rx
    limits (0.0 90.0)
  end
  begin
     id 30
     name rthumb
     direction -0.707107 -6.34834e-011 0.707107   
     length 0.629289   
     axis -90 -45 -2.85299e-015   XYZ
    dof rx rz
    limits (-45.0 45.0)
           (-45.0 45.0)
  end
:hierarchy
  begin
    root lhipjoint rhipjoint lowerback
    lhipjoint lfemur
    lfemur ltibia
    ltibia lfoot
    lfoot ltoes
    rhipjoint rfemur
    rfemur rtibia
    rtibia rfoot
    rfoot rtoes
    lowerback upperback
    upperback thorax
    thorax lowerneck lclavicle rclavicle
    lowerneck upperneck
    upperneck head
    lclavicle lhumerus
    lhumerus lradius
    lradius lwrist
    lwrist lhand lthumb
    lhand lfingers
    rclavicle rhumerus
    rhumerus rradius
    rradius rwrist
    rwrist rhand rthumb
    rhand rfingers
  end

#!OML:ASF H:\GeneralSubjects\Female5\Project 1\Capture day 1\Session 1\Female5.ASF
:FULLY-SPECIFIED
:DEGREES
53
root -7.24884 15.4208 2.65856 199.429 34.5845 193.683
lowerback 14.4225 5.2508 16.9517
upperback -12.0102 11.1955 -5.4646
thorax -17.4689 2.56866 -19.0618
lowerneck -10.1903 -15.2202 -6.1554
upperneck 47.183 -18.5009 3.25192
head 22.4232 -5.72859 -0.303622
rclavicle -3.89618e-014 -2.54444e-014
rhumerus -37.3665 15.2519 -79.6659
rradius 36.4422
rwrist 31.2546
rhand -29.9819 -17.5225
rfingers 7.12502
rthumb -3.30001 -47.4767
lclavicle -3.89618e-014 -2.54444e-014
lhumerus -54.3342 -13.1168 65.1476
lradius 39.9106
lwrist -7.38345
lhand -29.964 33.1422
lfingers 7.12502
lthumb -3.2827 63.0967
rfemur -13.6045 -25.2924 40.6296
rtibia 42.6161
rfoot -4.0126 -10.4422
rtoes -35.9664
lfemur -29.1891 2.85955 -32.1716
ltibia 24.0049
lfoot -20.4289 15.1088
ltoes -52.6375
54
root -7.1124 15.4196 2.61047 198.168 32.7602 192.547
lowerback 14.5994 4.88288 16.8947
upperback -11.7468 10.6814 -5.26999
thorax -17.5226 2.35285 -18.7037
lowerneck -9.95772 -15.1791 -6.74822
upperneck 46.9784 -18.0769 2.94637
head 22.1647 -5.75103 -0.258101
rclavicle 1.309e-013 5.88403e-014
rhumerus -37.7236 16.7581 -79.8508
rradius 35.4049
rwrist 31.9381
rhand -30.413 -17.6151
rfingers 7.12502
rthumb -3.71628 -47.5624
lclavicle 1.309e-013 5.88403e-014
lhumerus -53.5938 -12.2144 65.792
lradius 39.8583
lwrist -7.6899
lhand -29.8651 32.3246
lfingers 7.12502
lthumb -3.1872 62.2805
rfemur -16.691 -24.0975 39.3385
rtibia 48.5603
rfoot 0.0995786 -10.4087
rtoes -38.927
lfemur -27.5573 1.62305 -32.7136
ltibia 23.2082
lfoot -20.0086 14.5649
ltoes -55.4505
55
root -6.95906 15.4225 2.58308 196.846 31.3135 191.164
lowerback 14.8241 4.70853 16.0024
upperback -11.4766 10.2353 -5.06361
thorax -17.6919 2.26331 -17.8808
lowerneck -9.89707 -15.2727 -7.26284
upperneck 46.9874 -17.8804 2.66506
head 22.1752 -5.79481 -0.273787
rclavicle 4.79071e-014 -3.49861e-014
rhumerus -38.3512 18.5295 -80.1765
rradius 34.6305
rwrist 32.6576
rhand -30.6945 -17.9831
rfingers 7.12502
rthumb -3.98817 -47.9256
lclavicle 4.79071e-014 -3.49861e-014
lhumerus -53.0832 -12.0995 66.8547
lradius 40.4254
lwrist -7.79503
lhand -29.6435 31.9871
lfingers 7.12502
lthumb -2.97316 61.9462
rfemur -19.9044 -21.7038 37.9186
rtibia 54.1966
rfoot 1.77336 -10.9485
rtoes -44.852
lfemur -26.603 1.75563 -33.5861
ltibia 23.5876
lfoot -19.9305 12.7284
ltoes -57.4256
56
root -6.81396 15.4336 2.56697 195.778 29.7152 189.608
lowerback 14.762 4.54793 14.9528
upperback -11.2503 9.72121 -4.97358
thorax -17.7525 2.17862 -17.0503
lowerneck -9.64714 -15.2981 -7.26126
upperneck 46.9065 -17.7031 2.29912
head 21.6992 -5.78921 -0.419283
rclavicle -5.2181e-014 3.18055e-015
rhumerus -39.172 20.0623 -80.6456
rradius 34.2286
rwrist 32.9925
rhand -30.757 -19.0344
rfingers 7.12502
rthumb -4.04848 -48.9757
lclavicle -5.2181e-014 3.18055e-015
lhumerus -52.3994 -12.3497 67.8176
lradius 41.3143
lwrist -8.26903
lhand -28.8387 32.1734
lfingers 7.12502
lthumb -2.19597 62.1418
rfemur -23.8418 -18.9091 36.4572
rtibia 60.0476
rfoot 0.260565 -13.5782
rtoes -40.7516
lfemur -26.0082 1.29493 -34.5315
ltibia 23.9323
lfoot -20.1168 10.5948
ltoes -57.5826
57
root -6.66361 15.465 2.57403 195.066 27.6697 188.556
lowerback 14.7245 4.28496 14.1995
upperback -11.0558 9.16689 -4.78155
thorax -17.8418 2.03855 -16.2579
lowerneck -9.66033 -15.3562 -7.72153
upperneck 46.8602 -17.5079 2.09356
head 21.6934 -5.81675 -0.415349
rclavicle -3.48867e-014 -1.59028e-014
rhumerus -40.2325 21.1087 -80.9357
rradius 34.4697
rwrist 32.2793
rhand -30.7727 -20.2926
rfingers 7.12502
rthumb -4.06363 -50.2336
lclavicle -3.48867e-014 -1.59028e-014
lhumerus -51.3535 -13.0587 68.7437
lradius 42.1167
lwrist -9.39878
lhand -28.4315 32.6972
lfingers 7.12502
lthumb -1.8027 62.6694
rfemur -28.0426 -15.9593 35.5056
rtibia 65.821
rfoot -0.438735 -15.7369
rtoes -41.1933
lfemur -25.6823 0.872214 -34.9353
ltibia 24.3118
lfoot -19.6043 9.13153
ltoes -58.6583
58
root -6.50059 15.5059 2.59382 194.661 25.2729 188.107
lowerback 14.7061 3.95953 13.7665
upperback -10.9079 8.64372 -4.40844
thorax -17.9578 1.88085 -15.4381
lowerneck -9.77994 -15.5632 -7.93391
upperneck 46.8959 -17.597 1.8144
head 21.7462 -5.90325 -0.555661
rclavicle 1.18277e-014 6.36111e-015
rhumerus -41.598 21.5655 -80.8975
rradius 35.1452
rwrist 31.1593
rhand -31.0267 -20.971
rfingers 7.12502
rthumb -4.30891 -50.9072
lclavicle 1.18277e-014 6.36111e-015
lhumerus -50.1827 -14.2857 69.9101
lradius 42.908
lwrist -10.7377
lhand -28.7525 32.7538
lfingers 7.12502
lthumb -2.11265 62.7231
rfemur -32.2571 -13.1271 35.0899
rtibia 70.9824
rfoot -0.27815 -16.7929
rtoes -42.6554
lfemur -24.94 0.179497 -34.641
ltibia 23.6214
lfoot -18.4106 8.37822
ltoes -60.1859
